<svg xmlns="http://www.w3.org/2000/svg" viewBox="0 0 718 1000" width="718" height="1000"><defs><linearGradient id="b" x1="0" y1="0" x2="0" y2="1"><stop offset="0" stop-color="#165494"/><stop offset="1" stop-color="#104c83"/></linearGradient><linearGradient id="e" x1="0" y1="0" x2="0" y2="1"><stop offset="0" stop-color="#ffffff" stop-opacity="0.4"/><stop offset="0.59" stop-color="#ffffff" stop-opacity="0"/></linearGradient></defs><rect x="0" y="0" width="718" height="1000" rx="52" ry="52" fill="url(#b)"/><rect x="1.5" y="1.5" width="715" height="997" rx="50.5" ry="50.5" fill="none" stroke="url(#e)" stroke-width="3"/><path d="M208.64 249.89H187.72V303.5H148.80V249.89H72.80V215.01L141.46 46.5H187.72V213.18H208.64ZM148.80 213.18V112.21L109.52 213.18Z" fill="#ffffff"/><path transform="translate(18.92 317.44) scale(0.49)" d="M431.76 256c-69 42.24-137.27 126.89-175.76 224.78C217.51 382.89 149.25 298.24 80.24 256c69-42.24 137.27-126.89 175.76-224.78C294.49 129.11 362.75 213.76 431.76 256z" fill="#ffffff"/><path d="M583.10 829.77H547.67V920.5H481.80V829.77H353.17V770.73L469.37 485.5H547.67V767.62H583.10ZM481.80 767.62V596.73L415.31 767.62Z" fill="#ffffff"/></svg>