<svg xmlns="http://www.w3.org/2000/svg" viewBox="0 0 718 1000" width="718" height="1000"><defs><linearGradient id="b" x1="0" y1="0" x2="0" y2="1"><stop offset="0" stop-color="#1e721e"/><stop offset="1" stop-color="#185e18"/></linearGradient><linearGradient id="e" x1="0" y1="0" x2="0" y2="1"><stop offset="0" stop-color="#ffffff" stop-opacity="0.4"/><stop offset="0.59" stop-color="#ffffff" stop-opacity="0"/></linearGradient></defs><rect x="0" y="0" width="718" height="1000" rx="52" ry="52" fill="url(#b)"/><rect x="1.5" y="1.5" width="715" height="997" rx="50.5" ry="50.5" fill="none" stroke="url(#e)" stroke-width="3"/><path d="M80.27 241.96V234.36L117.19 230.74V239.06Q117.19 267.30 140.00 267.30Q150.86 267.30 156.83 261.14Q162.80 254.99 162.80 242.68V184.04Q162.80 173.19 157.37 167.57Q151.94 161.96 142.53 161.96Q132.04 161.96 125.34 168.66Q118.64 175.36 118.64 186.94V191.28H81.72V46.5H191.40V82.69H118.64V145.68Q122.99 138.07 132.94 132.64Q142.89 127.21 155.20 127.21Q176.56 127.21 188.87 141.15Q201.17 155.09 201.17 178.25V241.96Q201.17 270.56 185.06 287.03Q168.96 303.5 140.72 303.5Q112.49 303.5 96.38 287.03Q80.27 270.56 80.27 241.96Z" fill="#ffffff"/><path transform="translate(18.93 317.46) scale(0.49)" d="M477.44 295.14a104.45 104.45 0 0 1-202.26 36.67c-.08 68.73 4.33 114.46 69.55 149h-177.57c65.22-34.53 69.63-80.25 69.55-149a104.41 104.41 0 1 1-66.34-136.28 104.45 104.45 0 1 1 171.14 0 104.5 104.5 0 0 1 135.93 99.61z" fill="#ffffff"/><path d="M365.81 816.34V803.47L428.31 797.35V811.44Q428.31 859.23 466.91 859.23Q485.29 859.23 495.40 848.81Q505.50 838.40 505.50 817.57V718.31Q505.50 699.93 496.31 690.44Q487.12 680.94 471.19 680.94Q453.43 680.94 442.09 692.27Q430.76 703.61 430.76 723.21V730.57H368.26V485.50H553.91V546.76H430.76V653.37Q438.11 640.50 454.96 631.31Q471.81 622.12 492.64 622.12Q528.79 622.12 549.62 645.71Q570.45 669.30 570.45 708.51V816.34Q570.45 864.74 543.18 892.62Q515.92 920.5 468.13 920.5Q420.34 920.5 393.08 892.62Q365.81 864.74 365.81 816.34Z" fill="#ffffff"/></svg>