<svg xmlns="http://www.w3.org/2000/svg" viewBox="0 0 718 1000" width="718" height="1000"><defs><linearGradient id="b" x1="0" y1="0" x2="0" y2="1"><stop offset="0" stop-color="#165494"/><stop offset="1" stop-color="#104c83"/></linearGradient><linearGradient id="e" x1="0" y1="0" x2="0" y2="1"><stop offset="0" stop-color="#ffffff" stop-opacity="0.4"/><stop offset="0.59" stop-color="#ffffff" stop-opacity="0"/></linearGradient></defs><rect x="0" y="0" width="718" height="1000" rx="52" ry="52" fill="url(#b)"/><rect x="1.5" y="1.5" width="715" height="997" rx="50.5" ry="50.5" fill="none" stroke="url(#e)" stroke-width="3"/><path d="M201.05 106.46V243.53Q201.05 270.30 184.63 286.90Q168.21 303.5 141.44 303.5Q114.67 303.5 98.43 286.90Q82.18 270.30 82.18 243.53V235.32H118.59V245.31Q118.59 255.31 124.84 261.55Q131.09 267.80 141.08 267.80Q151.07 267.80 157.14 261.73Q163.21 255.66 163.21 245.31V188.20Q158.57 195.70 149.11 200.87Q139.65 206.05 126.45 206.05Q105.03 206.05 92.71 192.31Q80.40 178.56 80.40 155.01V106.46Q80.40 79.69 97.00 63.09Q113.60 46.49 140.37 46.49Q167.49 46.49 184.27 63.09Q201.05 79.69 201.05 106.46ZM118.24 104.68V149.29Q118.24 160.72 123.59 166.25Q128.94 171.78 138.94 171.78Q150.36 171.78 156.79 165.18Q163.21 158.58 163.21 146.80V104.68Q163.21 94.33 157.14 88.26Q151.07 82.19 140.37 82.19Q130.37 82.19 124.30 88.26Q118.24 94.33 118.24 104.68Z" fill="#ffffff"/><path transform="translate(18.92 317.44) scale(0.49)" d="M431.76 256c-69 42.24-137.27 126.89-175.76 224.78C217.51 382.89 149.25 298.24 80.24 256c69-42.24 137.27-126.89 175.76-224.78C294.49 129.11 362.75 213.76 431.76 256z" fill="#ffffff"/><path d="M570.24 587.0V818.99Q570.24 864.31 542.44 892.40Q514.65 920.49 469.34 920.49Q424.03 920.49 396.54 892.40Q369.05 864.31 369.05 818.99V805.10H430.67V822.02Q430.67 838.93 441.25 849.51Q451.82 860.08 468.74 860.08Q485.65 860.08 495.92 849.81Q506.19 839.54 506.19 822.02V725.35Q498.34 738.04 482.33 746.80Q466.32 755.56 443.96 755.56Q407.71 755.56 386.87 732.30Q366.03 709.04 366.03 669.16V587.0Q366.03 541.68 394.12 513.59Q422.21 485.49 467.53 485.49Q513.44 485.49 541.84 513.59Q570.24 541.68 570.24 587.0ZM430.07 583.97V659.5Q430.07 678.83 439.13 688.19Q448.19 697.56 465.11 697.56Q484.44 697.56 495.32 686.38Q506.19 675.20 506.19 655.27V583.97Q506.19 566.45 495.92 556.18Q485.65 545.91 467.53 545.91Q450.61 545.91 440.34 556.18Q430.07 566.45 430.07 583.97Z" fill="#ffffff"/></svg>