<svg xmlns="http://www.w3.org/2000/svg" viewBox="0 0 718 1000" width="718" height="1000"><defs><linearGradient id="b" x1="0" y1="0" x2="0" y2="1"><stop offset="0" stop-color="#a82223"/><stop offset="1" stop-color="#8f1c1d"/></linearGradient><linearGradient id="e" x1="0" y1="0" x2="0" y2="1"><stop offset="0" stop-color="#ffffff" stop-opacity="0.4"/><stop offset="0.59" stop-color="#ffffff" stop-opacity="0"/></linearGradient></defs><rect x="0" y="0" width="718" height="1000" rx="52" ry="52" fill="url(#b)"/><rect x="1.5" y="1.5" width="715" height="997" rx="50.5" ry="50.5" fill="none" stroke="url(#e)" stroke-width="3"/><path d="M126.22 197.76 111.54 226.03V303.5H72.62V46.5H111.54V150.76L162.94 46.5H204.79L150.09 155.54L208.83 303.5H166.97Z" fill="#ffffff"/><path transform="translate(18.92 317.45) scale(0.49)" d="M480.25 156.35c0 161.24-224.25 324.43-224.25 324.43S31.75 317.59 31.75 156.35c0-91.41 70.63-125.13 107.77-125.13 77.65 0 116.48 65.72 116.48 65.72s38.83-65.73 116.48-65.73c37.14.01 107.77 33.72 107.77 125.14z" fill="#ffffff"/><path d="M443.58 741.52 418.73 789.37V920.5H352.86V485.5H418.73V661.98L505.73 485.5H576.57L483.98 670.06L583.41 920.5H512.56Z" fill="#ffffff"/></svg>